# xmcd CD database file
#
# Track frame offsets:
#	150
#	16142
#	29098
#	42685
#	65484
#	84712
#	100796
#	115544
#	132017
#	148745
#	168956
#	191244
#	209574
#	222751
#
# Disc length: 3180 seconds
#
# Revision: 1
# Processed by: cddbd v1.5.1PL2 Copyright (c) Steve Scherf et al.
# Submitted via: CDex 1.51
#
DISCID=ce0c6a0e
DTITLE=中ノ森BAND - OH MY DARLIN' 〜Girls having Fun〜
DYEAR=2006
DGENRE=JPop
TTITLE0=smil&wild
TTITLE1=ピンクモンスター
TTITLE2=Whatever
TTITLE3=Oh My Darlin'
TTITLE4=恋愛Express
TTITLE5=TOY
TTITLE6=ラブコントロール
TTITLE7=クイックサンド
TTITLE8=空
TTITLE9=磁石
TTITLE10=サテライト
TTITLE11=new world
TTITLE12=シークレットプール
TTITLE13=ラズベリーパイ
EXTD=YEAR: 2006
EXTT0=
EXTT1=
EXTT2=
EXTT3=
EXTT4=
EXTT5=
EXTT6=
EXTT7=
EXTT8=
EXTT9=
EXTT10=
EXTT11=
EXTT12=
EXTT13=
PLAYORDER=
